<svg width="119" height="30" viewBox="0 0 119 30" fill="none" xmlns="http://www.w3.org/2000/svg">
<path d="M0 30V9.95703H4.04034V18.8574L12.2029 9.95703H17.6355L10.1008 17.7637L18.045 30H12.8172L7.31629 20.5938L4.04034 23.9434V30H0Z" fill="#1877F2"/>
<path d="M0 30V9.95703H4.04034V18.8574L12.2029 9.95703H17.6355L10.1008 17.7637L18.045 30H12.8172L7.31629 20.5938L4.04034 23.9434V30H0Z" fill="#1877F2"/>
<path d="M30.3178 14.8108C31.4314 14.8108 32.4213 15.0631 33.2875 15.5676C34.1536 16.0541 34.8253 16.7838 35.3026 17.7568C35.7976 18.7117 36.045 19.8649 36.045 21.2162V30H32.3329V21.7297C32.3329 20.5405 32.0412 19.6306 31.4579 19C30.8746 18.3514 30.0791 18.027 29.0715 18.027C28.0463 18.027 27.2332 18.3514 26.6322 19C26.0488 19.6306 25.7571 20.5405 25.7571 21.7297V30H22.045V10H25.7571V16.8919C26.2344 16.2432 26.8708 15.7387 27.6662 15.3784C28.4617 15 29.3455 14.8108 30.3178 14.8108Z" fill="#1877F2"/>
<path d="M43.9216 19.582L40.4409 18.9531C40.8322 17.5495 41.5056 16.5104 42.461 15.8359C43.4165 15.1615 44.8361 14.8242 46.7198 14.8242C48.4306 14.8242 49.7045 15.0293 50.5417 15.4395C51.3789 15.8405 51.9658 16.3555 52.3025 16.9844C52.6483 17.6042 52.8212 18.748 52.8212 20.416L52.7803 24.9004C52.7803 26.1764 52.8394 27.1198 52.9577 27.7305C53.0851 28.332 53.3172 28.9792 53.6539 29.6719H49.8592C49.7591 29.4167 49.6363 29.0384 49.4907 28.5371C49.427 28.3092 49.3815 28.1589 49.3542 28.0859C48.699 28.724 47.9983 29.2025 47.2521 29.5215C46.5059 29.8405 45.7097 30 44.8634 30C43.371 30 42.1926 29.5944 41.3281 28.7832C40.4727 27.972 40.045 26.9466 40.045 25.707C40.045 24.8867 40.2407 24.1576 40.632 23.5195C41.0233 22.8724 41.5693 22.3802 42.2699 22.043C42.9797 21.6966 43.9989 21.3958 45.3275 21.1406C47.1202 20.8034 48.3623 20.4889 49.0539 20.1973V19.8145C49.0539 19.0762 48.8719 18.5521 48.5079 18.2422C48.1439 17.9232 47.4569 17.7637 46.4468 17.7637C45.7643 17.7637 45.232 17.9004 44.8498 18.1738C44.4676 18.4382 44.1582 18.9076 43.9216 19.582ZM49.0539 22.6992C48.5625 22.8633 47.7845 23.0592 46.7198 23.2871C45.6551 23.515 44.959 23.7383 44.6314 23.957C44.1309 24.3125 43.8806 24.7637 43.8806 25.3105C43.8806 25.8483 44.0808 26.3132 44.4812 26.7051C44.8816 27.097 45.3912 27.293 46.01 27.293C46.7016 27.293 47.3613 27.0651 47.9892 26.6094C48.4533 26.263 48.7581 25.8392 48.9037 25.3379C49.0038 25.0098 49.0539 24.3854 49.0539 23.4648V22.6992Z" fill="#1877F2"/>
<path d="M43.9216 19.582L40.4409 18.9531C40.8322 17.5495 41.5056 16.5104 42.461 15.8359C43.4165 15.1615 44.8361 14.8242 46.7198 14.8242C48.4306 14.8242 49.7045 15.0293 50.5417 15.4395C51.3789 15.8405 51.9658 16.3555 52.3025 16.9844C52.6483 17.6042 52.8212 18.748 52.8212 20.416L52.7803 24.9004C52.7803 26.1764 52.8394 27.1198 52.9577 27.7305C53.0851 28.332 53.3172 28.9792 53.6539 29.6719H49.8592C49.7591 29.4167 49.6363 29.0384 49.4907 28.5371C49.427 28.3092 49.3815 28.1589 49.3542 28.0859C48.699 28.724 47.9983 29.2025 47.2521 29.5215C46.5059 29.8405 45.7097 30 44.8634 30C43.371 30 42.1926 29.5944 41.3281 28.7832C40.4727 27.972 40.045 26.9466 40.045 25.707C40.045 24.8867 40.2407 24.1576 40.632 23.5195C41.0233 22.8724 41.5693 22.3802 42.2699 22.043C42.9797 21.6966 43.9989 21.3958 45.3275 21.1406C47.1202 20.8034 48.3623 20.4889 49.0539 20.1973V19.8145C49.0539 19.0762 48.8719 18.5521 48.5079 18.2422C48.1439 17.9232 47.4569 17.7637 46.4468 17.7637C45.7643 17.7637 45.232 17.9004 44.8498 18.1738C44.4676 18.4382 44.1582 18.9076 43.9216 19.582ZM49.0539 22.6992C48.5625 22.8633 47.7845 23.0592 46.7198 23.2871C45.6551 23.515 44.959 23.7383 44.6314 23.957C44.1309 24.3125 43.8806 24.7637 43.8806 25.3105C43.8806 25.8483 44.0808 26.3132 44.4812 26.7051C44.8816 27.097 45.3912 27.293 46.01 27.293C46.7016 27.293 47.3613 27.0651 47.9892 26.6094C48.4533 26.263 48.7581 25.8392 48.9037 25.3379C49.0038 25.0098 49.0539 24.3854 49.0539 23.4648V22.6992Z" fill="#1877F2"/>
<path d="M83.1127 30H62.1466C60.955 30 59.8123 29.5259 58.9698 28.682C58.1272 27.8381 57.6539 26.6935 57.6539 25.5V1.5C57.6539 1.10218 57.8116 0.720644 58.0925 0.43934C58.3733 0.158035 58.7543 0 59.1514 0H80.1175C80.5147 0 80.8956 0.158035 81.1765 0.43934C81.4573 0.720644 81.6151 1.10218 81.6151 1.5V19.5H87.6054V25.5C87.6054 26.6935 87.1321 27.8381 86.2895 28.682C85.447 29.5259 84.3042 30 83.1127 30ZM81.6151 22.5V25.5C81.6151 25.8978 81.7729 26.2794 82.0537 26.5607C82.3346 26.842 82.7155 27 83.1127 27C83.5099 27 83.8908 26.842 84.1716 26.5607C84.4525 26.2794 84.6103 25.8978 84.6103 25.5V22.5H81.6151ZM78.6199 27V3H60.649V25.5C60.649 25.8978 60.8068 26.2794 61.0876 26.5607C61.3685 26.842 61.7494 27 62.1466 27H78.6199ZM63.6442 7.5H75.6248V10.5H63.6442V7.5ZM63.6442 13.5H75.6248V16.5H63.6442V13.5ZM63.6442 19.5H71.1321V22.5H63.6442V19.5Z" fill="#1877F2"/>
<path d="M83.1127 30H62.1466C60.955 30 59.8123 29.5259 58.9698 28.682C58.1272 27.8381 57.6539 26.6935 57.6539 25.5V1.5C57.6539 1.10218 57.8116 0.720644 58.0925 0.43934C58.3733 0.158035 58.7543 0 59.1514 0H80.1175C80.5147 0 80.8956 0.158035 81.1765 0.43934C81.4573 0.720644 81.6151 1.10218 81.6151 1.5V19.5H87.6054V25.5C87.6054 26.6935 87.1321 27.8381 86.2895 28.682C85.447 29.5259 84.3042 30 83.1127 30ZM81.6151 22.5V25.5C81.6151 25.8978 81.7729 26.2794 82.0537 26.5607C82.3346 26.842 82.7155 27 83.1127 27C83.5099 27 83.8908 26.842 84.1716 26.5607C84.4525 26.2794 84.6103 25.8978 84.6103 25.5V22.5H81.6151ZM78.6199 27V3H60.649V25.5C60.649 25.8978 60.8068 26.2794 61.0876 26.5607C61.3685 26.842 61.7494 27 62.1466 27H78.6199ZM63.6442 7.5H75.6248V10.5H63.6442V7.5ZM63.6442 13.5H75.6248V16.5H63.6442V13.5ZM63.6442 19.5H71.1321V22.5H63.6442V19.5Z" fill="#1877F2"/>
<path d="M95.4819 19.582L92.0013 18.9531C92.3925 17.5495 93.0659 16.5104 94.0214 15.8359C94.9769 15.1615 96.3965 14.8242 98.2802 14.8242C99.9909 14.8242 101.265 15.0293 102.102 15.4395C102.939 15.8405 103.526 16.3555 103.863 16.9844C104.209 17.6042 104.382 18.748 104.382 20.416L104.341 24.9004C104.341 26.1764 104.4 27.1198 104.518 27.7305C104.646 28.332 104.878 28.9792 105.214 29.6719H101.42C101.32 29.4167 101.197 29.0384 101.051 28.5371C100.987 28.3092 100.942 28.1589 100.915 28.0859C100.259 28.724 99.5587 29.2025 98.8125 29.5215C98.0663 29.8405 97.2701 30 96.4238 30C94.9314 30 93.753 29.5944 92.8885 28.7832C92.0331 27.972 91.6054 26.9466 91.6054 25.707C91.6054 24.8867 91.8011 24.1576 92.1924 23.5195C92.5836 22.8724 93.1296 22.3802 93.8303 22.043C94.5401 21.6966 95.5593 21.3958 96.8879 21.1406C98.6806 20.8034 99.9227 20.4889 100.614 20.1973V19.8145C100.614 19.0762 100.432 18.5521 100.068 18.2422C99.7043 17.9232 99.0172 17.7637 98.0072 17.7637C97.3247 17.7637 96.7923 17.9004 96.4101 18.1738C96.0279 18.4382 95.7185 18.9076 95.4819 19.582ZM100.614 22.6992C100.123 22.8633 99.3448 23.0592 98.2802 23.2871C97.2155 23.515 96.5193 23.7383 96.1917 23.957C95.6912 24.3125 95.441 24.7637 95.441 25.3105C95.441 25.8483 95.6412 26.3132 96.0416 26.7051C96.442 27.097 96.9516 27.293 97.5704 27.293C98.262 27.293 98.9217 27.0651 99.5496 26.6094C100.014 26.263 100.319 25.8392 100.464 25.3379C100.564 25.0098 100.614 24.3854 100.614 23.4648V22.6992Z" fill="#1877F2"/>
<path d="M95.4819 19.582L92.0013 18.9531C92.3925 17.5495 93.0659 16.5104 94.0214 15.8359C94.9769 15.1615 96.3965 14.8242 98.2802 14.8242C99.9909 14.8242 101.265 15.0293 102.102 15.4395C102.939 15.8405 103.526 16.3555 103.863 16.9844C104.209 17.6042 104.382 18.748 104.382 20.416L104.341 24.9004C104.341 26.1764 104.4 27.1198 104.518 27.7305C104.646 28.332 104.878 28.9792 105.214 29.6719H101.42C101.32 29.4167 101.197 29.0384 101.051 28.5371C100.987 28.3092 100.942 28.1589 100.915 28.0859C100.259 28.724 99.5587 29.2025 98.8125 29.5215C98.0663 29.8405 97.2701 30 96.4238 30C94.9314 30 93.753 29.5944 92.8885 28.7832C92.0331 27.972 91.6054 26.9466 91.6054 25.707C91.6054 24.8867 91.8011 24.1576 92.1924 23.5195C92.5836 22.8724 93.1296 22.3802 93.8303 22.043C94.5401 21.6966 95.5593 21.3958 96.8879 21.1406C98.6806 20.8034 99.9227 20.4889 100.614 20.1973V19.8145C100.614 19.0762 100.432 18.5521 100.068 18.2422C99.7043 17.9232 99.0172 17.7637 98.0072 17.7637C97.3247 17.7637 96.7923 17.9004 96.4101 18.1738C96.0279 18.4382 95.7185 18.9076 95.4819 19.582ZM100.614 22.6992C100.123 22.8633 99.3448 23.0592 98.2802 23.2871C97.2155 23.515 96.5193 23.7383 96.1917 23.957C95.6912 24.3125 95.441 24.7637 95.441 25.3105C95.441 25.8483 95.6412 26.3132 96.0416 26.7051C96.442 27.097 96.9516 27.293 97.5704 27.293C98.262 27.293 98.9217 27.0651 99.5496 26.6094C100.014 26.263 100.319 25.8392 100.464 25.3379C100.564 25.0098 100.614 24.3854 100.614 23.4648V22.6992Z" fill="#1877F2"/>
<path d="M113.05 30H109.214V15.4805H112.777V17.5449C113.387 16.5697 113.933 15.9271 114.415 15.6172C114.906 15.3073 115.461 15.1523 116.08 15.1523C116.954 15.1523 117.795 15.3939 118.605 15.877L117.418 19.2266C116.772 18.8073 116.171 18.5977 115.616 18.5977C115.079 18.5977 114.624 18.748 114.251 19.0488C113.878 19.3405 113.582 19.8737 113.364 20.6484C113.154 21.4232 113.05 23.0456 113.05 25.5156V30Z" fill="#1877F2"/>
<path d="M113.05 30H109.214V15.4805H112.777V17.5449C113.387 16.5697 113.933 15.9271 114.415 15.6172C114.906 15.3073 115.461 15.1523 116.08 15.1523C116.954 15.1523 117.795 15.3939 118.605 15.877L117.418 19.2266C116.772 18.8073 116.171 18.5977 115.616 18.5977C115.079 18.5977 114.624 18.748 114.251 19.0488C113.878 19.3405 113.582 19.8737 113.364 20.6484C113.154 21.4232 113.05 23.0456 113.05 25.5156V30Z" fill="#1877F2"/>
</svg>
